<svg width="22" height="7" viewBox="0 0 22 7" fill="none" xmlns="http://www.w3.org/2000/svg">
<path d="M2.81355 2.496C2.61355 2.396 2.34555 2.346 2.00955 2.346C1.48955 2.346 1.22955 2.538 1.22955 2.922C1.22955 3.106 1.39155 3.3 1.71555 3.504C1.98355 3.676 2.19355 3.812 2.34555 3.912C2.49755 4.012 2.58955 4.078 2.62155 4.11C2.94555 4.394 3.10755 4.722 3.10755 5.094C3.10755 5.51 2.94755 5.836 2.62755 6.072C2.35555 6.272 2.02955 6.372 1.64955 6.372C1.26955 6.372 0.921547 6.302 0.605547 6.162L0.683547 5.496C0.983547 5.664 1.31355 5.748 1.67355 5.748C2.20555 5.748 2.47155 5.514 2.47155 5.046C2.47155 4.862 2.30955 4.662 1.98555 4.446C1.69355 4.25 1.47155 4.1 1.31955 3.996C1.17155 3.892 1.09155 3.836 1.07955 3.828C0.759547 3.552 0.599547 3.25 0.599547 2.922C0.599547 2.55 0.743547 2.252 1.03155 2.028C1.29155 1.828 1.61955 1.728 2.01555 1.728C2.34355 1.728 2.64555 1.78 2.92155 1.884L2.81355 2.496ZM7.22308 6.282H6.57508V4.284H4.73308V6.282H4.07908V1.806H4.73308V3.672H6.57508V1.806H7.22308V6.282Z" fill="#0D0D0D"/>
<g clip-path="url(#clip0_57_8)">
<rect x="8" width="7" height="7" rx="3.5" fill="#27875D"/>
<rect x="8.5" y="0.5" width="6" height="6" rx="3" fill="white"/>
</g>
<path d="M18.0925 6.282H15.8125V1.806H18.0265V2.418H16.4665V3.666H17.9425V4.278H16.4665V5.664H18.0925V6.282ZM21.128 2.496C20.928 2.396 20.66 2.346 20.324 2.346C19.804 2.346 19.544 2.538 19.544 2.922C19.544 3.106 19.706 3.3 20.03 3.504C20.298 3.676 20.508 3.812 20.66 3.912C20.812 4.012 20.904 4.078 20.936 4.11C21.26 4.394 21.422 4.722 21.422 5.094C21.422 5.51 21.262 5.836 20.942 6.072C20.67 6.272 20.344 6.372 19.964 6.372C19.584 6.372 19.236 6.302 18.92 6.162L18.998 5.496C19.298 5.664 19.628 5.748 19.988 5.748C20.52 5.748 20.786 5.514 20.786 5.046C20.786 4.862 20.624 4.662 20.3 4.446C20.008 4.25 19.786 4.1 19.634 3.996C19.486 3.892 19.406 3.836 19.394 3.828C19.074 3.552 18.914 3.25 18.914 2.922C18.914 2.55 19.058 2.252 19.346 2.028C19.606 1.828 19.934 1.728 20.33 1.728C20.658 1.728 20.96 1.78 21.236 1.884L21.128 2.496Z" fill="#0D0D0D"/>
<defs>
<clipPath id="clip0_57_8">
<rect x="8" width="7" height="7" rx="3.5" fill="white"/>
</clipPath>
</defs>
</svg>
